<mxfile host="app.diagrams.net" modified="2024-03-26T04:27:58.875Z" agent="Mozilla/5.0 (Windows NT 10.0; Win64; x64) AppleWebKit/537.36 (KHTML, like Gecko) Chrome/122.0.0.0 Safari/537.36" etag="_nVE4eBwYJQdkfLEVqTD" version="24.1.0" type="github">
  <diagram id="C5RBs43oDa-KdzZeNtuy" name="Page-1">
    <mxGraphModel dx="1050" dy="557" grid="1" gridSize="10" guides="1" tooltips="1" connect="1" arrows="1" fold="1" page="1" pageScale="1" pageWidth="827" pageHeight="1169" math="0" shadow="0">
      <root>
        <mxCell id="WIyWlLk6GJQsqaUBKTNV-0" />
        <mxCell id="WIyWlLk6GJQsqaUBKTNV-1" parent="WIyWlLk6GJQsqaUBKTNV-0" />
        <mxCell id="TnOAtz3GDxLGnQk5rhQJ-4" value="" style="endArrow=classic;html=1;rounded=0;exitX=1;exitY=0;exitDx=0;exitDy=0;entryX=0;entryY=1;entryDx=0;entryDy=0;" edge="1" parent="WIyWlLk6GJQsqaUBKTNV-1" source="TnOAtz3GDxLGnQk5rhQJ-5" target="TnOAtz3GDxLGnQk5rhQJ-12">
          <mxGeometry width="50" height="50" relative="1" as="geometry">
            <mxPoint x="460.0000000000001" y="443.77" as="sourcePoint" />
            <mxPoint x="560" y="230" as="targetPoint" />
          </mxGeometry>
        </mxCell>
        <mxCell id="TnOAtz3GDxLGnQk5rhQJ-5" value="PAYMENT&lt;br&gt;MANAGEMENT&amp;nbsp;&lt;br&gt;SYSTEM" style="ellipse;whiteSpace=wrap;html=1;aspect=fixed;" vertex="1" parent="WIyWlLk6GJQsqaUBKTNV-1">
          <mxGeometry x="360" y="340" width="110" height="110" as="geometry" />
        </mxCell>
        <mxCell id="TnOAtz3GDxLGnQk5rhQJ-6" value="" style="endArrow=classic;html=1;rounded=0;" edge="1" parent="WIyWlLk6GJQsqaUBKTNV-1" source="TnOAtz3GDxLGnQk5rhQJ-5">
          <mxGeometry width="50" height="50" relative="1" as="geometry">
            <mxPoint x="400" y="380" as="sourcePoint" />
            <mxPoint x="200" y="220" as="targetPoint" />
          </mxGeometry>
        </mxCell>
        <mxCell id="TnOAtz3GDxLGnQk5rhQJ-7" value="" style="endArrow=classic;html=1;rounded=0;exitX=0;exitY=0.5;exitDx=0;exitDy=0;exitPerimeter=0;" edge="1" parent="WIyWlLk6GJQsqaUBKTNV-1" source="TnOAtz3GDxLGnQk5rhQJ-5">
          <mxGeometry width="50" height="50" relative="1" as="geometry">
            <mxPoint x="350" y="395" as="sourcePoint" />
            <mxPoint x="170" y="400" as="targetPoint" />
          </mxGeometry>
        </mxCell>
        <mxCell id="TnOAtz3GDxLGnQk5rhQJ-8" value="" style="endArrow=classic;html=1;rounded=0;exitX=0.5;exitY=1;exitDx=0;exitDy=0;" edge="1" parent="WIyWlLk6GJQsqaUBKTNV-1" source="TnOAtz3GDxLGnQk5rhQJ-5">
          <mxGeometry width="50" height="50" relative="1" as="geometry">
            <mxPoint x="390" y="320" as="sourcePoint" />
            <mxPoint x="415" y="610" as="targetPoint" />
          </mxGeometry>
        </mxCell>
        <mxCell id="TnOAtz3GDxLGnQk5rhQJ-10" value="" style="endArrow=classic;html=1;rounded=0;exitX=1;exitY=0.5;exitDx=0;exitDy=0;" edge="1" parent="WIyWlLk6GJQsqaUBKTNV-1" source="TnOAtz3GDxLGnQk5rhQJ-5" target="TnOAtz3GDxLGnQk5rhQJ-11">
          <mxGeometry width="50" height="50" relative="1" as="geometry">
            <mxPoint x="440" y="392.5" as="sourcePoint" />
            <mxPoint x="650" y="397.5" as="targetPoint" />
          </mxGeometry>
        </mxCell>
        <mxCell id="TnOAtz3GDxLGnQk5rhQJ-11" value="PAYMENT&amp;nbsp;&lt;br&gt;MODE&amp;nbsp;&lt;br&gt;MANAGEMENT" style="rounded=1;whiteSpace=wrap;html=1;" vertex="1" parent="WIyWlLk6GJQsqaUBKTNV-1">
          <mxGeometry x="640" y="365" width="120" height="60" as="geometry" />
        </mxCell>
        <mxCell id="TnOAtz3GDxLGnQk5rhQJ-12" value="QR&lt;br&gt;MANAGEMENT" style="rounded=1;whiteSpace=wrap;html=1;" vertex="1" parent="WIyWlLk6GJQsqaUBKTNV-1">
          <mxGeometry x="630" y="170" width="120" height="60" as="geometry" />
        </mxCell>
        <mxCell id="TnOAtz3GDxLGnQk5rhQJ-13" value="RECIEPT&amp;nbsp;&lt;br&gt;MANAGEMENT" style="rounded=1;whiteSpace=wrap;html=1;" vertex="1" parent="WIyWlLk6GJQsqaUBKTNV-1">
          <mxGeometry x="360" y="610" width="120" height="60" as="geometry" />
        </mxCell>
        <mxCell id="TnOAtz3GDxLGnQk5rhQJ-14" value="BILL&lt;br&gt;&amp;nbsp;MANAGEMENT" style="rounded=1;whiteSpace=wrap;html=1;" vertex="1" parent="WIyWlLk6GJQsqaUBKTNV-1">
          <mxGeometry x="610" y="555" width="120" height="60" as="geometry" />
        </mxCell>
        <mxCell id="TnOAtz3GDxLGnQk5rhQJ-15" value="" style="endArrow=classic;html=1;rounded=0;entryX=0.007;entryY=0.137;entryDx=0;entryDy=0;entryPerimeter=0;exitX=0.833;exitY=0.94;exitDx=0;exitDy=0;exitPerimeter=0;" edge="1" parent="WIyWlLk6GJQsqaUBKTNV-1" source="TnOAtz3GDxLGnQk5rhQJ-5" target="TnOAtz3GDxLGnQk5rhQJ-14">
          <mxGeometry width="50" height="50" relative="1" as="geometry">
            <mxPoint x="390" y="460" as="sourcePoint" />
            <mxPoint x="440" y="410" as="targetPoint" />
          </mxGeometry>
        </mxCell>
        <mxCell id="TnOAtz3GDxLGnQk5rhQJ-16" value="" style="endArrow=classic;html=1;rounded=0;exitX=0;exitY=1;exitDx=0;exitDy=0;" edge="1" parent="WIyWlLk6GJQsqaUBKTNV-1" source="TnOAtz3GDxLGnQk5rhQJ-5" target="TnOAtz3GDxLGnQk5rhQJ-17">
          <mxGeometry width="50" height="50" relative="1" as="geometry">
            <mxPoint x="270" y="540" as="sourcePoint" />
            <mxPoint x="240" y="570" as="targetPoint" />
          </mxGeometry>
        </mxCell>
        <mxCell id="TnOAtz3GDxLGnQk5rhQJ-17" value="ACCOUNT&amp;nbsp;&lt;br&gt;MANAGEMENT" style="rounded=1;whiteSpace=wrap;html=1;" vertex="1" parent="WIyWlLk6GJQsqaUBKTNV-1">
          <mxGeometry x="150" y="550" width="120" height="60" as="geometry" />
        </mxCell>
        <mxCell id="TnOAtz3GDxLGnQk5rhQJ-18" value="TRANSACTION&lt;br&gt;MANAGEMENT" style="rounded=1;whiteSpace=wrap;html=1;" vertex="1" parent="WIyWlLk6GJQsqaUBKTNV-1">
          <mxGeometry x="50" y="367.5" width="120" height="60" as="geometry" />
        </mxCell>
        <mxCell id="TnOAtz3GDxLGnQk5rhQJ-19" value="BRANCH&amp;nbsp;&lt;br&gt;MANAGEMENT" style="rounded=1;whiteSpace=wrap;html=1;" vertex="1" parent="WIyWlLk6GJQsqaUBKTNV-1">
          <mxGeometry x="90" y="160" width="120" height="60" as="geometry" />
        </mxCell>
        <mxCell id="TnOAtz3GDxLGnQk5rhQJ-20" value="LOGIN&amp;nbsp;&lt;br&gt;MANAGEMENT" style="rounded=1;whiteSpace=wrap;html=1;" vertex="1" parent="WIyWlLk6GJQsqaUBKTNV-1">
          <mxGeometry x="360" y="100" width="120" height="60" as="geometry" />
        </mxCell>
        <mxCell id="TnOAtz3GDxLGnQk5rhQJ-23" value="" style="endArrow=classic;html=1;rounded=0;exitX=0.5;exitY=0;exitDx=0;exitDy=0;entryX=0.5;entryY=1;entryDx=0;entryDy=0;" edge="1" parent="WIyWlLk6GJQsqaUBKTNV-1" source="TnOAtz3GDxLGnQk5rhQJ-5" target="TnOAtz3GDxLGnQk5rhQJ-20">
          <mxGeometry width="50" height="50" relative="1" as="geometry">
            <mxPoint x="390" y="260" as="sourcePoint" />
            <mxPoint x="440" y="210" as="targetPoint" />
          </mxGeometry>
        </mxCell>
        <mxCell id="TnOAtz3GDxLGnQk5rhQJ-24" value="ZERO LEVEL DIAGRAM OF PAYTM&amp;nbsp;" style="rounded=0;whiteSpace=wrap;html=1;fontStyle=1" vertex="1" parent="WIyWlLk6GJQsqaUBKTNV-1">
          <mxGeometry x="200" y="720" width="470" height="20" as="geometry" />
        </mxCell>
      </root>
    </mxGraphModel>
  </diagram>
</mxfile>
